<svg width="180" height="28" viewBox="0 0 180 28" fill="none" xmlns="http://www.w3.org/2000/svg">
<path d="M17.65 17.172L14.482 8.514C14.326 8.13 14.164 7.674 13.996 7.146C13.828 6.618 13.66 6.048 13.492 5.436C13.336 6.048 13.174 6.624 13.006 7.164C12.838 7.692 12.676 8.154 12.52 8.55L9.37 17.172H17.65ZM26.2 27H22.456C22.036 27 21.694 26.898 21.43 26.694C21.166 26.478 20.968 26.214 20.836 25.902L18.892 20.592H8.11L6.166 25.902C6.07 26.178 5.884 26.43 5.608 26.658C5.332 26.886 4.99 27 4.582 27H0.802L11.044 0.971998H15.976L26.2 27ZM45.9947 20.862C46.2587 20.862 46.4927 20.964 46.6967 21.168L48.6047 23.238C47.5487 24.546 46.2467 25.548 44.6987 26.244C43.1627 26.94 41.3147 27.288 39.1547 27.288C37.2227 27.288 35.4827 26.958 33.9347 26.298C32.3987 25.638 31.0847 24.72 29.9927 23.544C28.9007 22.368 28.0607 20.964 27.4727 19.332C26.8967 17.7 26.6087 15.918 26.6087 13.986C26.6087 12.03 26.9207 10.242 27.5447 8.622C28.1687 6.99 29.0447 5.586 30.1727 4.41C31.3127 3.234 32.6687 2.322 34.2407 1.674C35.8127 1.014 37.5527 0.684 39.4607 0.684C41.3567 0.684 43.0367 0.995999 44.5007 1.62C45.9767 2.244 47.2307 3.06 48.2627 4.068L46.6427 6.318C46.5467 6.462 46.4207 6.588 46.2647 6.696C46.1207 6.804 45.9167 6.858 45.6527 6.858C45.4727 6.858 45.2867 6.81 45.0947 6.714C44.9027 6.606 44.6927 6.48 44.4647 6.336C44.2367 6.18 43.9727 6.012 43.6727 5.832C43.3727 5.652 43.0247 5.49 42.6287 5.346C42.2327 5.19 41.7707 5.064 41.2427 4.968C40.7267 4.86 40.1267 4.806 39.4427 4.806C38.2787 4.806 37.2107 5.016 36.2387 5.436C35.2787 5.844 34.4507 6.444 33.7547 7.236C33.0587 8.016 32.5187 8.976 32.1347 10.116C31.7507 11.244 31.5587 12.534 31.5587 13.986C31.5587 15.45 31.7627 16.752 32.1707 17.892C32.5907 19.032 33.1547 19.992 33.8627 20.772C34.5707 21.552 35.4047 22.152 36.3647 22.572C37.3247 22.98 38.3567 23.184 39.4607 23.184C40.1207 23.184 40.7147 23.148 41.2427 23.076C41.7827 23.004 42.2747 22.89 42.7187 22.734C43.1747 22.578 43.6007 22.38 43.9967 22.14C44.4047 21.888 44.8067 21.582 45.2027 21.222C45.3227 21.114 45.4487 21.03 45.5807 20.97C45.7127 20.898 45.8507 20.862 45.9947 20.862ZM65.6734 17.172L62.5054 8.514C62.3494 8.13 62.1874 7.674 62.0194 7.146C61.8514 6.618 61.6834 6.048 61.5154 5.436C61.3594 6.048 61.1974 6.624 61.0294 7.164C60.8614 7.692 60.6994 8.154 60.5434 8.55L57.3934 17.172H65.6734ZM74.2234 27H70.4794C70.0594 27 69.7174 26.898 69.4534 26.694C69.1894 26.478 68.9914 26.214 68.8594 25.902L66.9154 20.592H56.1334L54.1894 25.902C54.0934 26.178 53.9074 26.43 53.6314 26.658C53.3554 26.886 53.0134 27 52.6054 27H48.8254L59.0674 0.971998H63.9994L74.2234 27ZM100.03 13.986C100.03 15.894 99.7115 17.646 99.0755 19.242C98.4395 20.838 97.5455 22.212 96.3935 23.364C95.2415 24.516 93.8555 25.41 92.2355 26.046C90.6155 26.682 88.8155 27 86.8355 27H76.9175V0.971998H86.8355C88.8155 0.971998 90.6155 1.296 92.2355 1.944C93.8555 2.58 95.2415 3.474 96.3935 4.626C97.5455 5.766 98.4395 7.134 99.0755 8.73C99.7115 10.326 100.03 12.078 100.03 13.986ZM95.0615 13.986C95.0615 12.558 94.8695 11.28 94.4855 10.152C94.1135 9.012 93.5675 8.052 92.8475 7.272C92.1395 6.48 91.2755 5.874 90.2555 5.454C89.2475 5.034 88.1075 4.824 86.8355 4.824H81.7775V23.148H86.8355C88.1075 23.148 89.2475 22.938 90.2555 22.518C91.2755 22.098 92.1395 21.498 92.8475 20.718C93.5675 19.926 94.1135 18.966 94.4855 17.838C94.8695 16.698 95.0615 15.414 95.0615 13.986ZM109.164 4.824V12.042H118.272V15.768H109.164V23.13H120.72V27H104.304V0.971998H120.72V4.824H109.164ZM153.235 0.971998V27H148.969V10.188C148.969 9.516 149.005 8.79 149.077 8.01L141.211 22.788C140.839 23.496 140.269 23.85 139.501 23.85H138.817C138.049 23.85 137.479 23.496 137.107 22.788L129.151 7.956C129.187 8.352 129.217 8.742 129.241 9.126C129.265 9.51 129.277 9.864 129.277 10.188V27H125.011V0.971998H128.665C128.881 0.971998 129.067 0.977998 129.223 0.989999C129.379 1.002 129.517 1.032 129.637 1.08C129.769 1.128 129.883 1.206 129.979 1.314C130.087 1.422 130.189 1.566 130.285 1.746L138.079 16.2C138.283 16.584 138.469 16.98 138.637 17.388C138.817 17.796 138.991 18.216 139.159 18.648C139.327 18.204 139.501 17.778 139.681 17.37C139.861 16.95 140.053 16.548 140.257 16.164L147.943 1.746C148.039 1.566 148.141 1.422 148.249 1.314C148.357 1.206 148.471 1.128 148.591 1.08C148.723 1.032 148.867 1.002 149.023 0.989999C149.179 0.977998 149.365 0.971998 149.581 0.971998H153.235ZM170.221 16.92V27H165.397V16.92L155.911 0.971998H160.177C160.597 0.971998 160.927 1.074 161.167 1.278C161.419 1.482 161.629 1.74 161.797 2.052L166.549 10.746C166.825 11.262 167.065 11.748 167.269 12.204C167.485 12.66 167.677 13.116 167.845 13.572C168.001 13.116 168.181 12.66 168.385 12.204C168.589 11.748 168.823 11.262 169.087 10.746L173.821 2.052C173.953 1.788 174.151 1.542 174.415 1.314C174.679 1.086 175.015 0.971998 175.423 0.971998H179.707L170.221 16.92Z" fill="#E5E5E5"/>
</svg>
